<mxfile host="Electron" agent="Mozilla/5.0 (Macintosh; Intel Mac OS X 10_15_7) AppleWebKit/537.36 (KHTML, like Gecko) draw.io/24.7.17 Chrome/128.0.6613.36 Electron/32.0.1 Safari/537.36" version="24.7.17">
  <diagram name="Page-1" id="eJpzMhBAzyf9ePUwecCP">
    <mxGraphModel dx="925" dy="1120" grid="1" gridSize="10" guides="1" tooltips="1" connect="1" arrows="1" fold="1" page="1" pageScale="1" pageWidth="827" pageHeight="1169" math="0" shadow="0">
      <root>
        <mxCell id="0" />
        <mxCell id="1" parent="0" />
        <mxCell id="sVHqh6Q9jJszK81v89sf-1" value="&lt;h1&gt;&lt;font style=&quot;font-size: 20px;&quot;&gt;Other&#39;s Profile&lt;/font&gt;&lt;/h1&gt;" style="text;html=1;align=center;verticalAlign=middle;resizable=0;points=[];autosize=1;strokeColor=none;fillColor=none;" vertex="1" parent="1">
          <mxGeometry x="9" y="73" width="160" height="70" as="geometry" />
        </mxCell>
        <mxCell id="sVHqh6Q9jJszK81v89sf-4" value="" style="rounded=0;whiteSpace=wrap;html=1;" vertex="1" parent="1">
          <mxGeometry x="9" y="143" width="810" height="500" as="geometry" />
        </mxCell>
        <mxCell id="sVHqh6Q9jJszK81v89sf-5" value="Profile&lt;div&gt;Photo&lt;/div&gt;" style="ellipse;whiteSpace=wrap;html=1;aspect=fixed;" vertex="1" parent="1">
          <mxGeometry x="742" y="160" width="60" height="60" as="geometry" />
        </mxCell>
        <mxCell id="sVHqh6Q9jJszK81v89sf-6" value="(personal name)" style="text;html=1;align=center;verticalAlign=middle;resizable=0;points=[];autosize=1;strokeColor=none;fillColor=none;" vertex="1" parent="1">
          <mxGeometry x="709" y="220" width="110" height="30" as="geometry" />
        </mxCell>
        <mxCell id="sVHqh6Q9jJszK81v89sf-7" value="Back" style="ellipse;whiteSpace=wrap;html=1;" vertex="1" parent="1">
          <mxGeometry x="20" y="160" width="91" height="40" as="geometry" />
        </mxCell>
        <mxCell id="sVHqh6Q9jJszK81v89sf-11" value="" style="rounded=0;whiteSpace=wrap;html=1;" vertex="1" parent="1">
          <mxGeometry x="120" y="143" width="590" height="500" as="geometry" />
        </mxCell>
        <mxCell id="sVHqh6Q9jJszK81v89sf-12" value="Profile&lt;div&gt;Photo&lt;/div&gt;" style="ellipse;whiteSpace=wrap;html=1;aspect=fixed;" vertex="1" parent="1">
          <mxGeometry x="150" y="160" width="60" height="60" as="geometry" />
        </mxCell>
        <mxCell id="sVHqh6Q9jJszK81v89sf-14" value="Other&#39;s Name" style="text;html=1;align=center;verticalAlign=middle;resizable=0;points=[];autosize=1;strokeColor=none;fillColor=none;" vertex="1" parent="1">
          <mxGeometry x="230" y="160" width="100" height="30" as="geometry" />
        </mxCell>
        <mxCell id="sVHqh6Q9jJszK81v89sf-15" value="Chess" style="rounded=1;whiteSpace=wrap;html=1;strokeColor=default;align=center;verticalAlign=middle;fontFamily=Helvetica;fontSize=12;fontColor=default;fillColor=default;" vertex="1" parent="1">
          <mxGeometry x="150" y="260" width="200" height="80" as="geometry" />
        </mxCell>
        <mxCell id="sVHqh6Q9jJszK81v89sf-16" value="Tic Tac Toe" style="rounded=1;whiteSpace=wrap;html=1;strokeColor=default;align=center;verticalAlign=middle;fontFamily=Helvetica;fontSize=12;fontColor=default;fillColor=default;" vertex="1" parent="1">
          <mxGeometry x="150" y="520" width="200" height="80" as="geometry" />
        </mxCell>
        <mxCell id="sVHqh6Q9jJszK81v89sf-17" value="Connect 4" style="rounded=1;whiteSpace=wrap;html=1;strokeColor=default;align=center;verticalAlign=middle;fontFamily=Helvetica;fontSize=12;fontColor=default;fillColor=default;" vertex="1" parent="1">
          <mxGeometry x="150" y="390" width="200" height="80" as="geometry" />
        </mxCell>
        <mxCell id="sVHqh6Q9jJszK81v89sf-18" value="Ranking:&amp;nbsp;&lt;div&gt;xx&lt;/div&gt;" style="text;html=1;align=left;verticalAlign=middle;resizable=0;points=[];autosize=1;strokeColor=none;fillColor=none;" vertex="1" parent="1">
          <mxGeometry x="424" y="520" width="70" height="40" as="geometry" />
        </mxCell>
        <mxCell id="sVHqh6Q9jJszK81v89sf-19" value="Ranking:&amp;nbsp;&lt;div&gt;xx&lt;/div&gt;" style="text;html=1;align=left;verticalAlign=middle;resizable=0;points=[];autosize=1;strokeColor=none;fillColor=none;" vertex="1" parent="1">
          <mxGeometry x="424" y="390" width="70" height="40" as="geometry" />
        </mxCell>
        <mxCell id="sVHqh6Q9jJszK81v89sf-20" value="Ranking:&amp;nbsp;&lt;div&gt;xx&lt;/div&gt;" style="text;html=1;align=left;verticalAlign=middle;resizable=0;points=[];autosize=1;strokeColor=none;fillColor=none;" vertex="1" parent="1">
          <mxGeometry x="424" y="260" width="70" height="40" as="geometry" />
        </mxCell>
        <mxCell id="sVHqh6Q9jJszK81v89sf-22" value="My ranking:&lt;br&gt;&lt;div style=&quot;text-align: left;&quot;&gt;&lt;span style=&quot;background-color: initial;&quot;&gt;xx&lt;/span&gt;&lt;/div&gt;" style="text;html=1;align=center;verticalAlign=middle;resizable=0;points=[];autosize=1;strokeColor=none;fillColor=none;" vertex="1" parent="1">
          <mxGeometry x="719" y="260" width="90" height="40" as="geometry" />
        </mxCell>
        <mxCell id="sVHqh6Q9jJszK81v89sf-23" value="My ranking:&lt;br&gt;&lt;div style=&quot;text-align: left;&quot;&gt;&lt;span style=&quot;background-color: initial;&quot;&gt;xx&lt;/span&gt;&lt;/div&gt;" style="text;html=1;align=center;verticalAlign=middle;resizable=0;points=[];autosize=1;strokeColor=none;fillColor=none;" vertex="1" parent="1">
          <mxGeometry x="719" y="390" width="90" height="40" as="geometry" />
        </mxCell>
        <mxCell id="sVHqh6Q9jJszK81v89sf-24" value="My ranking:&lt;br&gt;&lt;div style=&quot;text-align: left;&quot;&gt;&lt;span style=&quot;background-color: initial;&quot;&gt;xx&lt;/span&gt;&lt;/div&gt;" style="text;html=1;align=center;verticalAlign=middle;resizable=0;points=[];autosize=1;strokeColor=none;fillColor=none;" vertex="1" parent="1">
          <mxGeometry x="719" y="520" width="90" height="40" as="geometry" />
        </mxCell>
        <mxCell id="sVHqh6Q9jJszK81v89sf-25" value="Challenge" style="rounded=1;whiteSpace=wrap;html=1;" vertex="1" parent="1">
          <mxGeometry x="560" y="260" width="100" height="50" as="geometry" />
        </mxCell>
        <mxCell id="sVHqh6Q9jJszK81v89sf-26" value="Challenge" style="rounded=1;whiteSpace=wrap;html=1;" vertex="1" parent="1">
          <mxGeometry x="560" y="390" width="100" height="50" as="geometry" />
        </mxCell>
        <mxCell id="sVHqh6Q9jJszK81v89sf-27" value="Challenge" style="rounded=1;whiteSpace=wrap;html=1;" vertex="1" parent="1">
          <mxGeometry x="560" y="520" width="100" height="50" as="geometry" />
        </mxCell>
      </root>
    </mxGraphModel>
  </diagram>
</mxfile>
